<?xml version="1.0" encoding="UTF-8"?>
<svg xmlns="http://www.w3.org/2000/svg" xmlns:xlink="http://www.w3.org/1999/xlink" viewBox="0 0 966.44 1086.05">
  <defs>
    <style>
      .cls-1 {
        fill: url(#linear-gradient-2);
      }

      .cls-2, .cls-3 {
        fill: #fff;
      }

      .cls-4 {
        isolation: isolate;
      }

      .cls-3 {
        opacity: .6;
      }

      .cls-3, .cls-5 {
        mix-blend-mode: overlay;
      }

      .cls-6 {
        clip-path: url(#clippath);
      }

      .cls-7 {
        fill: none;
      }

      .cls-5 {
        opacity: .4;
      }

      .cls-8 {
        fill: #e6e6e6;
        mix-blend-mode: multiply;
      }

      .cls-9 {
        fill: url(#linear-gradient-3);
      }

      .cls-10 {
        fill: url(#linear-gradient);
      }
    </style>
    <clipPath id="clippath">
      <rect class="cls-7" x=".44" y="-.37" width="966" height="1086"/>
    </clipPath>
    <linearGradient id="linear-gradient" x1="483.22" y1="1086.05" x2="483.22" y2="0" gradientUnits="userSpaceOnUse">
      <stop offset="0" stop-color="#123c5e"/>
      <stop offset=".23" stop-color="#113e63"/>
      <stop offset=".5" stop-color="#0e4772"/>
      <stop offset=".8" stop-color="#09558a"/>
      <stop offset="1" stop-color="#06619f"/>
    </linearGradient>
    <linearGradient id="linear-gradient-2" x1="419.43" y1="1123.9" x2="419.43" y2="878.61" xlink:href="#linear-gradient"/>
    <linearGradient id="linear-gradient-3" x1="450.19" y1="1206.63" x2="450.19" y2="1014.64" xlink:href="#linear-gradient"/>
  </defs>
  <g class="cls-4">
    <g id="Layer_1" data-name="Layer 1">
      <g class="cls-6">
        <g>
          <rect class="cls-10" width="966.44" height="1086.05"/>
          <rect class="cls-7" width="887.38" height="1086.05"/>
          <path class="cls-1" d="M-155.67,966.39c40.92-39.75,108.12-65.02,170.88-52.98,43.2,8.28,81.68,27.97,121.17,44.66,39.49,16.69,82.95,30.91,127.02,26.85,96.48-8.87,157.22-99.28,252.78-113.44,101.66-15.06,207.51,61.59,302.34,27.76,68.49-24.44,102.45-99.46,176-109.77v389.36H-155.67v-212.44Z"/>
          <path class="cls-9" d="M-66.05,995.46c55.47,8.71,86.22-.25,132.31-24.03,30.95-15.97,57.06-38.71,93.96-45.61,45.06-8.42,91.61,9.75,126.34,31.97,34.73,22.23,64.19,49.48,104.99,65.56,84.73,33.38,193.21,8.35,269.55-34.16,33.03-18.39,62.89-39.94,98.86-55.24,35.97-15.3,80.7-23.81,119.87-13.29,32.21,8.65,55.91,28.7,86.61,39.82v282.32H-66.05v-247.34Z"/>
          <g class="cls-5">
            <path class="cls-2" d="M143.61,211.81c0,3.61-2.92,6.53-6.53,6.53s-6.53-2.92-6.53-6.53,2.92-6.53,6.53-6.53,6.53,2.92,6.53,6.53Z"/>
            <path class="cls-2" d="M623.59,843.22c0,3.61-2.92,6.53-6.53,6.53s-6.53-2.92-6.53-6.53,2.92-6.53,6.53-6.53,6.53,2.92,6.53,6.53Z"/>
            <path class="cls-2" d="M184.84,1018.12c0,1.84-1.49,3.34-3.34,3.34s-3.34-1.49-3.34-3.34,1.49-3.34,3.34-3.34,3.34,1.49,3.34,3.34Z"/>
            <circle class="cls-2" cx="741.25" cy="835.18" r="7.15"/>
            <path class="cls-2" d="M221.97,965.02c0,4.54-3.68,8.21-8.21,8.21s-8.21-3.68-8.21-8.21,3.68-8.21,8.21-8.21,8.21,3.68,8.21,8.21Z"/>
            <path class="cls-2" d="M151.7,167.2c0,2.16-1.75,3.92-3.92,3.92s-3.92-1.75-3.92-3.92,1.75-3.92,3.92-3.92,3.92,1.75,3.92,3.92Z"/>
            <path class="cls-2" d="M725.44,893.78c0,2.16-1.75,3.92-3.92,3.92s-3.92-1.75-3.92-3.92,1.75-3.92,3.92-3.92,3.92,1.75,3.92,3.92Z"/>
            <circle class="cls-2" cx="60.55" cy="191.34" r="2.35"/>
            <path class="cls-2" d="M808.98,625.44c0,1.3-1.05,2.35-2.35,2.35s-2.35-1.05-2.35-2.35,1.05-2.35,2.35-2.35,2.35,1.05,2.35,2.35Z"/>
            <path class="cls-2" d="M295.87,899.58c0,1.27-1.03,2.29-2.29,2.29s-2.29-1.03-2.29-2.29,1.03-2.29,2.29-2.29,2.29,1.03,2.29,2.29Z"/>
            <path class="cls-2" d="M82.11,857.83c0,2.67-2.16,4.83-4.83,4.83s-4.83-2.16-4.83-4.83,2.16-4.83,4.83-4.83,4.83,2.16,4.83,4.83Z"/>
            <circle class="cls-2" cx="747.3" cy="690.62" r="2.35"/>
          </g>
          <path class="cls-8" d="M927.71,1202.97h3.99V-103.17h-3.99V-28.15h-84.62V-103.17h-3.99V-28.15h-84.62V-103.17h-3.99V-28.15h-84.62V-103.17h-3.99V-28.15h-84.62V-103.17h-3.99V-28.15h-84.62V-103.17h-3.99V-28.15h-84.62V-103.17h-3.99V-28.15h-84.62V-103.17h-3.99V-28.15h-84.62V-103.17h-3.99V-28.15h-84.62V-103.17h-3.99V-28.15H45.53V-103.17h-3.99V1202.97h3.99v-75.1h84.62v75.1h3.99v-75.1h84.62v75.1h3.99v-75.1h84.62v75.1h3.99v-75.1h84.62v75.1h3.99v-75.1h84.62v75.1h3.99v-75.1h84.62v75.1h3.99v-75.1h84.62v75.1h3.99v-75.1h84.62v75.1h3.99v-75.1h84.62v75.1h3.99v-75.1h84.62v75.1Zm-797.56-79.09H45.53v-84.63h84.62v84.63Zm88.62,0h-84.62v-84.63h84.62v84.63Zm88.62,0h-84.62v-84.63h84.62v84.63Zm88.62,0h-84.62v-84.63h84.62v84.63Zm88.62,0h-84.62v-84.63h84.62v84.63Zm88.62,0h-84.62v-84.63h84.62v84.63Zm88.62,0h-84.62v-84.63h84.62v84.63Zm88.62,0h-84.62v-84.63h84.62v84.63Zm88.62,0h-84.62v-84.63h84.62v84.63Zm88.62,0h-84.62v-84.63h84.62v84.63Zm-797.56-88.62H45.53v-84.62h84.62v84.62Zm88.62,0h-84.62v-84.62h84.62v84.62Zm88.62,0h-84.62v-84.62h84.62v84.62Zm88.62,0h-84.62v-84.62h84.62v84.62Zm88.62,0h-84.62v-84.62h84.62v84.62Zm88.62,0h-84.62v-84.62h84.62v84.62Zm88.62,0h-84.62v-84.62h84.62v84.62Zm88.62,0h-84.62v-84.62h84.62v84.62Zm88.62,0h-84.62v-84.62h84.62v84.62Zm88.62,0h-84.62v-84.62h84.62v84.62Zm-797.56-88.61H45.53v-84.62h84.62v84.62Zm88.62,0h-84.62v-84.62h84.62v84.62Zm88.62,0h-84.62v-84.62h84.62v84.62Zm88.62,0h-84.62v-84.62h84.62v84.62Zm88.62,0h-84.62v-84.62h84.62v84.62Zm88.62,0h-84.62v-84.62h84.62v84.62Zm88.62,0h-84.62v-84.62h84.62v84.62Zm88.62,0h-84.62v-84.62h84.62v84.62Zm88.62,0h-84.62v-84.62h84.62v84.62Zm88.62,0h-84.62v-84.62h84.62v84.62Zm-797.56-88.62H45.53v-84.62h84.62v84.62Zm88.62,0h-84.62v-84.62h84.62v84.62Zm88.62,0h-84.62v-84.62h84.62v84.62Zm88.62,0h-84.62v-84.62h84.62v84.62Zm88.62,0h-84.62v-84.62h84.62v84.62Zm88.62,0h-84.62v-84.62h84.62v84.62Zm88.62,0h-84.62v-84.62h84.62v84.62Zm88.62,0h-84.62v-84.62h84.62v84.62Zm88.62,0h-84.62v-84.62h84.62v84.62Zm88.62,0h-84.62v-84.62h84.62v84.62Zm-797.56-88.61H45.53v-84.62h84.62v84.62Zm88.62,0h-84.62v-84.62h84.62v84.62Zm88.62,0h-84.62v-84.62h84.62v84.62Zm88.62,0h-84.62v-84.62h84.62v84.62Zm88.62,0h-84.62v-84.62h84.62v84.62Zm88.62,0h-84.62v-84.62h84.62v84.62Zm88.62,0h-84.62v-84.62h84.62v84.62Zm88.62,0h-84.62v-84.62h84.62v84.62Zm88.62,0h-84.62v-84.62h84.62v84.62Zm88.62,0h-84.62v-84.62h84.62v84.62Zm-797.56-88.62H45.53v-84.62h84.62v84.62Zm88.62,0h-84.62v-84.62h84.62v84.62Zm88.62,0h-84.62v-84.62h84.62v84.62Zm88.62,0h-84.62v-84.62h84.62v84.62Zm88.62,0h-84.62v-84.62h84.62v84.62Zm88.62,0h-84.62v-84.62h84.62v84.62Zm88.62,0h-84.62v-84.62h84.62v84.62Zm88.62,0h-84.62v-84.62h84.62v84.62Zm88.62,0h-84.62v-84.62h84.62v84.62Zm88.62,0h-84.62v-84.62h84.62v84.62Zm-797.56-88.62H45.53v-84.62h84.62v84.62Zm88.62,0h-84.62v-84.62h84.62v84.62Zm88.62,0h-84.62v-84.62h84.62v84.62Zm88.62,0h-84.62v-84.62h84.62v84.62Zm88.62,0h-84.62v-84.62h84.62v84.62Zm88.62,0h-84.62v-84.62h84.62v84.62Zm88.62,0h-84.62v-84.62h84.62v84.62Zm88.62,0h-84.62v-84.62h84.62v84.62Zm88.62,0h-84.62v-84.62h84.62v84.62Zm88.62,0h-84.62v-84.62h84.62v84.62ZM130.16,503.56H45.53v-84.63h84.62v84.63Zm88.62,0h-84.62v-84.63h84.62v84.63Zm88.62,0h-84.62v-84.63h84.62v84.63Zm88.62,0h-84.62v-84.63h84.62v84.63Zm88.62,0h-84.62v-84.63h84.62v84.63Zm88.62,0h-84.62v-84.63h84.62v84.63Zm88.62,0h-84.62v-84.63h84.62v84.63Zm88.62,0h-84.62v-84.63h84.62v84.63Zm88.62,0h-84.62v-84.63h84.62v84.63Zm88.62,0h-84.62v-84.63h84.62v84.63ZM130.16,414.94H45.53v-84.62h84.62v84.62Zm88.62,0h-84.62v-84.62h84.62v84.62Zm88.62,0h-84.62v-84.62h84.62v84.62Zm88.62,0h-84.62v-84.62h84.62v84.62Zm88.62,0h-84.62v-84.62h84.62v84.62Zm88.62,0h-84.62v-84.62h84.62v84.62Zm88.62,0h-84.62v-84.62h84.62v84.62Zm88.62,0h-84.62v-84.62h84.62v84.62Zm88.62,0h-84.62v-84.62h84.62v84.62Zm88.62,0h-84.62v-84.62h84.62v84.62ZM130.16,326.33H45.53v-84.63h84.62v84.63Zm88.62,0h-84.62v-84.63h84.62v84.63Zm88.62,0h-84.62v-84.63h84.62v84.63Zm88.62,0h-84.62v-84.63h84.62v84.63Zm88.62,0h-84.62v-84.63h84.62v84.63Zm88.62,0h-84.62v-84.63h84.62v84.63Zm88.62,0h-84.62v-84.63h84.62v84.63Zm88.62,0h-84.62v-84.63h84.62v84.63Zm88.62,0h-84.62v-84.63h84.62v84.63Zm88.62,0h-84.62v-84.63h84.62v84.63ZM130.16,237.71H45.53v-84.63h84.62v84.63Zm88.62,0h-84.62v-84.63h84.62v84.63Zm88.62,0h-84.62v-84.63h84.62v84.63Zm88.62,0h-84.62v-84.63h84.62v84.63Zm88.62,0h-84.62v-84.63h84.62v84.63Zm88.62,0h-84.62v-84.63h84.62v84.63Zm88.62,0h-84.62v-84.63h84.62v84.63Zm88.62,0h-84.62v-84.63h84.62v84.63Zm88.62,0h-84.62v-84.63h84.62v84.63Zm88.62,0h-84.62v-84.63h84.62v84.63ZM130.16,149.09H45.53V64.47h84.62v84.62Zm88.62,0h-84.62V64.47h84.62v84.62Zm88.62,0h-84.62V64.47h84.62v84.62Zm88.62,0h-84.62V64.47h84.62v84.62Zm88.62,0h-84.62V64.47h84.62v84.62Zm88.62,0h-84.62V64.47h84.62v84.62Zm88.62,0h-84.62V64.47h84.62v84.62Zm88.62,0h-84.62V64.47h84.62v84.62Zm88.62,0h-84.62V64.47h84.62v84.62Zm88.62,0h-84.62V64.47h84.62v84.62ZM130.16,60.47H45.53V-24.15h84.62V60.47Zm88.62,0h-84.62V-24.15h84.62V60.47Zm88.62,0h-84.62V-24.15h84.62V60.47Zm88.62,0h-84.62V-24.15h84.62V60.47Zm88.62,0h-84.62V-24.15h84.62V60.47Zm88.62,0h-84.62V-24.15h84.62V60.47Zm88.62,0h-84.62V-24.15h84.62V60.47Zm88.62,0h-84.62V-24.15h84.62V60.47Zm88.62,0h-84.62V-24.15h84.62V60.47Zm88.62,0h-84.62V-24.15h84.62V60.47Z"/>
          <path class="cls-3" d="M683.77,895.52c0,11.01-8.92,19.93-19.93,19.93s-19.93-8.92-19.93-19.93,8.92-19.93,19.93-19.93,19.93,8.92,19.93,19.93Z"/>
          <circle class="cls-3" cx="88.91" cy="295.83" r="19.93"/>
        </g>
      </g>
    </g>
  </g>
</svg>