<svg xmlns="http://www.w3.org/2000/svg" viewBox="0 0 60 57.52"><defs><style>.cls-1{fill:#39b54a;}</style></defs><g id="Layer_2" data-name="Layer 2"><g id="Layer_1-2" data-name="Layer 1"><path class="cls-1" d="M55.85,22.88A10.66,10.66,0,0,1,53.78,21a9.72,9.72,0,0,1,.59-2.88c.65-2.19,1.45-4.91-.1-7s-4.41-2.22-6.71-2.28a9.89,9.89,0,0,1-2.86-.31,9.8,9.8,0,0,1-1.16-2.6c-.76-2.18-1.72-4.89-4.27-5.72S34.58,1,32.62,2.29A9.15,9.15,0,0,1,30,3.76a9.15,9.15,0,0,1-2.62-1.47C25.42,1,23.2-.58,20.73.22s-3.5,3.54-4.27,5.72a9.85,9.85,0,0,1-1.15,2.59,9.63,9.63,0,0,1-2.87.32c-2.3.06-5.15.13-6.71,2.27s-.75,4.85-.1,7A9.65,9.65,0,0,1,6.22,21a9.89,9.89,0,0,1-2.07,1.86C2.3,24.29,0,26.05,0,28.76s2.3,4.47,4.15,5.88a10.39,10.39,0,0,1,2.07,1.85,9.72,9.72,0,0,1-.59,2.87c-.65,2.19-1.45,4.91.1,7s4.41,2.22,6.71,2.28a9.88,9.88,0,0,1,2.86.3,10.09,10.09,0,0,1,1.16,2.6c.77,2.18,1.72,4.89,4.27,5.72a4.41,4.41,0,0,0,1.4.22c1.92,0,3.67-1.2,5.25-2.29A9.39,9.39,0,0,1,30,53.76a9.39,9.39,0,0,1,2.62,1.47c2,1.35,4.18,2.87,6.65,2.07s3.5-3.54,4.27-5.71A10.26,10.26,0,0,1,44.69,49a9.65,9.65,0,0,1,2.88-.31c2.29-.06,5.14-.13,6.7-2.28s.75-4.85.1-7a9.59,9.59,0,0,1-.59-2.86,10.17,10.17,0,0,1,2.07-1.86C57.7,33.23,60,31.48,60,28.76s-2.3-4.47-4.15-5.88Zm-14.71,1.4-12.5,12.5a2.49,2.49,0,0,1-3.53,0h0l-6.25-6.25A2.5,2.5,0,1,1,22.35,27l0,0,4.48,4.49L37.61,20.74a2.5,2.5,0,0,1,3.58,3.49l0,.05Z"/></g></g></svg>